<?xml version="1.0" encoding="UTF-8"?>
<svg version="1.1" xmlns="http://www.w3.org/2000/svg" width="711" height="437">
<path d="M0 0 C0.93280792 -0.00525696 1.86561584 -0.01051392 2.82669067 -0.01593018 C5.88927293 -0.02906005 8.95132909 -0.02041617 12.01391602 -0.01025391 C14.15568643 -0.01227682 16.29745617 -0.01519008 18.43922424 -0.01895142 C22.92032451 -0.02336543 27.40124492 -0.01697398 31.88232422 -0.00292969 C37.60967824 0.01415111 43.33661012 0.00432193 49.06394863 -0.01364708 C53.48475795 -0.02451863 57.90546819 -0.02102292 62.32628059 -0.0132637 C64.43727736 -0.01127048 66.54828328 -0.01368994 68.65926933 -0.02070236 C71.61683647 -0.02837121 74.57373249 -0.01663622 77.53125 0 C78.39334579 -0.00607269 79.25544159 -0.01214539 80.1436615 -0.0184021 C88.51850308 0.06831536 95.69679856 1.99481541 101.89282227 7.77490234 C107.04010103 13.55160379 107.48030186 19.86115804 107.49145508 27.22680664 C107.49641998 28.0127269 107.50138489 28.79864716 107.50650024 29.60838318 C107.52109044 32.2055652 107.52791966 34.80268609 107.53344727 37.39990234 C107.53920258 39.21108501 107.54496026 41.02226767 107.55072021 42.83345032 C107.56122216 46.6322152 107.56706968 50.43095898 107.57055664 54.22973633 C107.57603081 59.0805586 107.60003916 63.93109869 107.62852859 68.7818327 C107.64722138 72.52493586 107.65236416 76.26797205 107.65389252 80.01111794 C107.65690607 81.79836375 107.66489042 83.58560875 107.6780777 85.37280846 C107.81331033 105.11394452 107.81331033 105.11394452 102.14282227 113.70068359 C96.84860604 118.75960132 90.58062076 121.49041674 83.23410034 121.53535461 C82.02327034 121.54608757 82.02327034 121.54608757 80.78797913 121.55703735 C79.472584 121.56107071 79.472584 121.56107071 78.13061523 121.56518555 C76.73468895 121.57504234 76.73468895 121.57504234 75.31056213 121.58509827 C72.23121048 121.6048049 69.15190759 121.61648938 66.07250977 121.62646484 C64.49149664 121.63257813 64.49149664 121.63257813 62.87854385 121.63881493 C57.29736783 121.65966661 51.7162163 121.67397102 46.13500977 121.68334961 C40.38518994 121.69439896 34.63575871 121.72878474 28.88607597 121.76852131 C24.45237535 121.79473496 20.01876656 121.80304578 15.58499527 121.80663109 C13.46642565 121.81148645 11.34785984 121.82307026 9.2293663 121.84166908 C6.25473493 121.86615641 3.2810989 121.86507765 0.30639648 121.8581543 C-0.55838821 121.87096436 -1.42317291 121.88377441 -2.31416321 121.89697266 C-9.60051257 121.83558122 -16.36728074 120.0123632 -22.14233398 115.42333984 C-22.66698242 114.77236328 -23.19163086 114.12138672 -23.73217773 113.45068359 C-24.2800293 112.80228516 -24.82788086 112.15388672 -25.39233398 111.48583984 C-26.83684543 109.1136605 -27.1882003 107.10275392 -27.66967773 104.38818359 C-35.34697348 104.44998945 -43.02398323 104.52750658 -50.7009201 104.62389851 C-54.26746773 104.6682118 -57.83391129 104.70754763 -61.40063477 104.73461914 C-89.1346837 104.11271325 -89.1346837 104.11271325 -114.66967773 113.38818359 C-115.54172852 113.94119141 -115.54172852 113.94119141 -116.43139648 114.50537109 C-121.68948503 118.3462922 -124.65213309 124.33554965 -126.66967773 130.38818359 C-127.39931139 139.07363043 -126.49223631 146.02633705 -121.10717773 153.01318359 C-112.58484048 162.20723216 -99.96750829 165.93115648 -87.72465515 166.53294373 C-86.69419571 166.5424556 -85.66373627 166.55196747 -84.60205078 166.56176758 C-83.42188889 166.57525742 -82.24172699 166.58874725 -81.02580261 166.60264587 C-79.75714859 166.61308426 -78.48849457 166.62352264 -77.18139648 166.63427734 C-75.83737946 166.64983198 -74.49336992 166.66604506 -73.14936829 166.68287659 C-67.4805282 166.75284161 -61.81160655 166.81255419 -56.14257812 166.86499023 C-2.79399971 167.37159885 48.99547268 171.11826418 88.57641602 210.63037109 C111.45595128 234.98168933 117.38903899 267.97616434 116.48266602 300.13427734 C115.14611799 328.68157228 103.85599396 353.70569473 84.33032227 374.38818359 C83.76700195 375.00435547 83.20368164 375.62052734 82.62329102 376.25537109 C63.82749127 396.10300391 37.60539175 405.63095853 11.33032227 410.38818359 C10.37735071 410.56185046 9.42437916 410.73551733 8.44252968 410.91444683 C-2.0124658 412.61560553 -12.28399826 412.67818383 -22.85180664 412.6628418 C-24.85095407 412.66719799 -26.85009983 412.67238414 -28.84924316 412.67832947 C-34.24216605 412.6916359 -39.63501849 412.6923073 -45.02795458 412.68976617 C-49.55007493 412.68869034 -54.07218138 412.69359558 -58.59429872 412.69837159 C-69.27617408 412.7094388 -79.95801427 412.70992049 -90.63989258 412.70385742 C-101.61090798 412.69782531 -112.58179489 412.71011574 -123.55278838 412.73142749 C-133.01403507 412.74912171 -142.47524116 412.75503242 -151.93650377 412.75178975 C-157.56858149 412.74998851 -163.20056762 412.75249558 -168.83263016 412.76650429 C-174.13679835 412.77920532 -179.44076845 412.77702419 -184.74493408 412.7640934 C-186.67483974 412.76175418 -188.60475989 412.76436498 -190.5346489 412.77271652 C-207.36084028 412.84019335 -223.8094842 411.11760014 -240.10717773 406.76318359 C-241.05471924 406.51157471 -242.00226074 406.25996582 -242.97851562 406.00073242 C-268.89095397 398.78000896 -293.28780651 385.03546495 -312.66967773 366.38818359 C-313.22236328 365.87191406 -313.77504883 365.35564453 -314.34448242 364.82373047 C-341.97041211 338.96431644 -360.38118311 303.98706111 -361.76788521 265.67488098 C-361.81043616 262.61002229 -361.82442634 259.54635522 -361.82739258 256.48120117 C-361.8324733 255.32219299 -361.83755402 254.16318481 -361.8427887 252.96905518 C-361.85344574 250.46465102 -361.86208399 247.96023762 -361.86890793 245.45582008 C-361.88076768 241.48162941 -361.8999634 237.50751448 -361.92202759 233.53337097 C-361.98360448 222.23786192 -362.03785401 210.94235947 -362.07104492 199.64672852 C-362.08949356 193.39519714 -362.11855264 187.14380549 -362.15904963 180.89237708 C-362.17994283 177.59554582 -362.19385433 174.29892446 -362.1978569 171.0020237 C-361.8940334 142.00636659 -361.8940334 142.00636659 -375.29467773 117.01318359 C-385.87693971 107.30097375 -398.1775027 104.97962591 -412.02124023 105.20068359 C-424.98816467 105.867078 -436.40607243 110.07658034 -445.66967773 119.38818359 C-455.81976902 132.85040993 -456.96444022 148.05851843 -456.98852539 164.42822266 C-456.99784662 165.89795977 -457.00801847 167.3676917 -457.01896667 168.8374176 C-457.04603369 172.78904939 -457.06134609 176.74064602 -457.0743947 180.69234562 C-457.09012837 184.83633982 -457.11688539 188.98026327 -457.14242554 193.12420654 C-457.18903346 200.95425044 -457.22586405 208.78430791 -457.25909841 216.61441875 C-457.29744765 225.53597392 -457.34682385 234.45745771 -457.39708257 243.3789525 C-457.50013458 261.71531047 -457.58948108 280.05171213 -457.66967773 298.38818359 C-456.7325293 298.69369141 -455.79538086 298.99919922 -454.82983398 299.31396484 C-448.55077126 301.44838048 -444.75922029 304.53431349 -441.66967773 310.38818359 C-439.82138781 315.7964904 -439.37727382 320.53497477 -439.39501953 326.22583008 C-439.3899086 327.0820697 -439.38479767 327.93830933 -439.37953186 328.82049561 C-439.36570211 331.63349518 -439.36658753 334.44624794 -439.36889648 337.25927734 C-439.36500614 339.22551056 -439.36067077 341.19174294 -439.35591125 343.15797424 C-439.34846343 347.27258025 -439.34873006 351.38710042 -439.35400391 355.50170898 C-439.35979889 360.76172295 -439.34285975 366.02138483 -439.31965923 371.2813406 C-439.30489372 375.34009335 -439.30405399 379.39876184 -439.30716896 383.4575367 C-439.30665724 385.39631917 -439.3014477 387.33510655 -439.29135704 389.27386284 C-439.27895419 391.9898525 -439.28580707 394.70516295 -439.29736328 397.42114258 C-439.28971954 398.21359879 -439.28207581 399.00605499 -439.27420044 399.82252502 C-439.35309586 408.25544264 -442.0792183 414.51013767 -447.83764648 420.69287109 C-454.15307933 426.53700298 -461.53915277 426.538515 -469.6315918 426.54931641 C-470.52494736 426.55428131 -471.41830292 426.55924622 -472.33872986 426.56436157 C-475.28759539 426.57893917 -478.23640712 426.58577812 -481.18530273 426.59130859 C-483.24167888 426.59706398 -485.29805502 426.60282167 -487.35443115 426.60858154 C-491.66508229 426.61907923 -495.97571484 426.62492986 -500.28637695 426.62841797 C-505.79518419 426.63389785 -511.30374366 426.65792042 -516.8124733 426.68638992 C-521.06083888 426.70506448 -525.30914537 426.71022449 -529.55754852 426.71175385 C-531.58761702 426.71477038 -533.61768472 426.72276497 -535.64771271 426.73593903 C-538.49539238 426.75309918 -541.34247437 426.75109493 -544.19018555 426.74462891 C-545.01959152 426.75384369 -545.8489975 426.76305847 -546.70353699 426.77255249 C-554.07806994 426.72041099 -561.81743738 425.25922955 -567.33340454 419.97009277 C-575.44427687 410.36826625 -574.40280389 399.29305762 -574.33374023 387.41943359 C-574.33711378 385.37259636 -574.34197087 383.32576109 -574.34823608 381.27893066 C-574.35558194 377.00216481 -574.34497571 372.72592334 -574.3215332 368.44921875 C-574.29304713 362.98854068 -574.30946338 357.52909162 -574.33939552 352.06845856 C-574.35753036 347.84571197 -574.35168213 343.62325305 -574.33875656 339.40049744 C-574.33543964 337.38801424 -574.33944878 335.37550426 -574.35115433 333.36305237 C-574.44619827 312.4336916 -574.44619827 312.4336916 -568.66967773 305.38818359 C-562.16012972 299.38818359 -562.16012972 299.38818359 -558.66967773 299.38818359 C-558.67244311 298.55294348 -558.67520849 297.71770336 -558.67805767 296.85715294 C-558.74460839 276.43709574 -558.79409879 256.0170575 -558.82511425 235.59691429 C-558.84051569 225.72147069 -558.86147492 215.84609993 -558.89599609 205.97070312 C-558.92610614 197.35300188 -558.94530143 188.73535344 -558.95194322 180.11760104 C-558.95581929 175.56392342 -558.96478426 171.01039676 -558.9868679 166.45676804 C-559.18029429 124.91535825 -555.62875713 87.3881077 -525.99780273 55.68505859 C-506.5468138 36.49515676 -481.69120706 25.62224146 -455.35717773 19.70068359 C-454.02565674 19.39674683 -454.02565674 19.39674683 -452.66723633 19.08666992 C-436.84018716 15.70121241 -421.08884423 15.06123027 -404.95751953 15.12744141 C-401.87113646 15.13813523 -398.78533988 15.12749258 -395.69897461 15.11474609 C-378.67520206 15.10152164 -361.56246601 15.76652732 -344.91967773 19.63818359 C-343.96633545 19.85506836 -343.01299316 20.07195313 -342.03076172 20.29541016 C-314.89170537 26.69391996 -290.85854928 39.59026371 -275.41967773 63.70068359 C-261.77604335 86.99938988 -259.3910879 110.5547946 -259.33415222 136.90668678 C-259.32575544 140.67248363 -259.30515272 144.43805019 -259.28161621 148.20378113 C-259.23372097 156.20271419 -259.20050134 164.20167207 -259.16967773 172.20068359 C-259.13392146 181.47097724 -259.09159188 190.74116858 -259.03373718 200.01135826 C-259.01392643 203.69010928 -259.00540252 207.36876891 -258.99743652 211.04756165 C-258.87001214 239.35082112 -257.50541557 267.63449082 -236.44311523 288.74365234 C-215.62571852 308.59347991 -189.12224969 315.89235382 -160.82519531 315.79223633 C-159.32817584 315.79796107 -157.83116072 315.80493329 -156.33415222 315.81303406 C-152.32601751 315.83074129 -148.31810431 315.8298411 -144.30994248 315.82409167 C-140.94277377 315.82096925 -137.57564578 315.82712522 -134.20848292 315.83313042 C-126.25907028 315.84709803 -118.3097653 315.84567744 -110.36035156 315.83422852 C-102.19916074 315.82273335 -94.03829802 315.83686415 -85.87715036 315.86362499 C-78.82694231 315.88586482 -71.77683665 315.89240144 -64.72659606 315.88654858 C-60.53447091 315.88320014 -56.34255633 315.88545276 -52.1504612 315.90279961 C-48.20948047 315.91840179 -44.26898267 315.91416847 -40.3280201 315.89549446 C-38.89387343 315.89184607 -37.45968986 315.89480556 -36.02557755 315.90538025 C-21.87831935 316.00162643 -8.42735599 313.76006104 2.10375977 303.69287109 C8.30923425 296.94252567 10.49304252 289.46296727 10.33032227 280.38818359 C9.30624702 272.32810903 5.49725078 266.57197858 -0.66967773 261.38818359 C-14.57242672 252.40728228 -30.16556645 251.272609 -46.26704788 251.1889534 C-48.39348013 251.17690768 -50.51973144 251.15738376 -52.64608765 251.13583374 C-58.68822674 251.07516641 -64.73035365 251.02106147 -70.77270508 250.98681641 C-117.59222713 250.70697492 -168.41165191 248.46931975 -203.91967773 213.63818359 C-218.57571929 198.649379 -227.60365618 180.90206635 -231.66967773 160.38818359 C-231.84402344 159.5403833 -232.01836914 158.69258301 -232.19799805 157.8190918 C-232.83205862 153.20705595 -232.87203162 148.65614022 -232.90795898 144.00537109 C-232.91603073 142.99588409 -232.92410248 141.98639709 -232.93241882 140.94631958 C-232.94622592 138.8063527 -232.95696311 136.6663641 -232.96484375 134.52636719 C-232.97626695 132.37590912 -232.99656163 130.22547716 -233.02636719 128.07519531 C-233.44833272 97.56638042 -227.20087704 70.47409273 -205.42358398 48.07177734 C-201.40127302 44.15216368 -197.22664627 40.66662961 -192.66967773 37.38818359 C-191.88850586 36.80681641 -191.10733398 36.22544922 -190.30249023 35.62646484 C-165.62836079 18.52368041 -133.50322843 15.05927355 -104.32144928 15.17491913 C-101.17687709 15.18529257 -98.03269213 15.17966721 -94.88812256 15.16949463 C-85.96139173 15.1417443 -77.03489559 15.12924513 -68.1081543 15.15820312 C-62.61705741 15.17488813 -57.12666894 15.16270807 -51.63564301 15.13175201 C-49.55121917 15.12564495 -47.46673293 15.13052492 -45.38236237 15.14662933 C-42.48156212 15.16814647 -39.58310647 15.15300575 -36.68237305 15.12939453 C-35.82421997 15.14475754 -34.96606689 15.16012054 -34.08190918 15.1759491 C-31.79078386 15.13601545 -29.86520554 15.04606439 -27.66967773 14.38818359 C-25.1899238 11.61405773 -25.1899238 11.61405773 -23.66967773 8.38818359 C-16.57471415 1.45446919 -9.51989604 -0.06690205 0 0 Z " fill="#FEFEFE" transform="translate(581.669677734375,5.61181640625)"/>
</svg>
